<?xml version="1.0" encoding="utf-8"?>
<!-- Generator: Adobe Illustrator 27.5.0, SVG Export Plug-In . SVG Version: 6.00 Build 0)  -->
<svg version="1.1" id="Layer_1" xmlns="http://www.w3.org/2000/svg" xmlns:xlink="http://www.w3.org/1999/xlink" x="0px" y="0px"
	 viewBox="0 0 4000 4000" style="enable-background:new 0 0 4000 4000;" xml:space="preserve">
<g>
	<g>
		<rect style="fill:#81B1FF;" width="4000" height="4000"/>
	</g>
	<g>
		<g style="opacity:0.3;">
			<ellipse style="fill:#3D0A68;" cx="2032.5" cy="3514.722" rx="819.183" ry="85.278"/>
		</g>
		<g>
			<g>
				<path style="fill:#FFFFFF;" d="M1707.733,1930.977c9.115-1.166,608.833-3.162,608.833-3.162l45.357,120.548l-90.714,830.801
					l-350.855-34.537"/>
			</g>
			<g style="opacity:0.3;">
				<polygon style="fill:#3D0A68;" points="2048.773,2412.138 2146.295,2504.811 2160.337,2879.164 2048.701,2897.903 
					2061.715,2731.409 				"/>
			</g>
			<g>
				<g>
					<path style="fill:#653691;" d="M2418.885,3208.748h-56.963l32.772-273.408l-10.77-4.32l-218.749-87.545l-58.576-30.526
						l-55.061,42.333l-544.339,75.393l16.991,278.073l12.152,198.533c2.708,44.695,39.742,79.54,84.494,79.54h339.47
						c22.519,0,43.255-8.524,58.92-22.635c6.624-5.933,12.326-12.844,16.818-20.562c14.514,25.918,42.218,43.197,73.781,43.197
						h339.412c45.732,0,84.264-35.134,87.316-80.75C2543.407,3304.99,2519.505,3210.592,2418.885,3208.748z M1968.715,3215.027
						c-11.404-3.859-24.305-6.048-38.762-6.279l2.419-4.896l71.707-143.932l11.519,188.396
						C2003.849,3233.169,1988.413,3221.649,1968.715,3215.027z"/>
				</g>
			</g>
			<g>
				<path style="fill:#1B96EA;" d="M2019.457,3463.898c-0.057,0.115-0.115,0.173-0.231,0.288
					c-15.666,14.111-36.401,22.635-58.92,22.635h-339.47c-44.752,0-81.787-34.846-84.494-79.54l-3.225-52.93l-8.927-145.603
					c64.219,71.477,156.199,89.907,247.778,51.088c0,0,87.603-63.47,160.404-55.983c12.729,1.267,25.055,4.78,36.343,11.174
					c35.364,19.986,61.973,56.559,74.184,98.661C2056.837,3361.896,2051.883,3417.36,2019.457,3463.898z"/>
			</g>
			<g>
				<path style="fill:#1B96EA;" d="M2511.567,3463.898c-0.058,0.115-0.115,0.173-0.231,0.288
					c-15.666,14.111-36.401,22.635-58.92,22.635h-339.47c-44.752,0-81.787-34.846-84.494-79.54l-12.152-198.533
					c64.219,71.477,156.199,89.907,247.778,51.088c0,0,87.603-63.47,160.404-55.983c12.729,1.267,25.055,4.78,36.344,11.174
					C2536.563,3257.877,2572.331,3376.698,2511.567,3463.898z"/>
			</g>
			<g style="opacity:0.6;">
				<g>
					<path style="fill:#FFFFFF;" d="M1575.623,3407.281l-12.153-198.533l-16.991-278.073l84.206-11.692
						c-1.613-1.555-3.168-3.167-4.781-4.723l-118.705,16.415l16.991,278.073l12.152,198.533c2.708,44.695,39.742,79.54,84.494,79.54
						h39.28C1615.364,3486.821,1578.329,3451.976,1575.623,3407.281z M2039.901,3005.196l-34.96,70.21l8.757,141.751
						c16.99,6.797,30.583,17.51,41.181,31.16L2039.901,3005.196z"/>
				</g>
			</g>
			<g>
				<g>
					<path style="fill:#1E9EC6;" d="M2422.686,2730.011l-0.634,1.382l6.163,35.94l18.949,110.93
						c4.089,23.903-11.001,46.826-34.558,52.816c-50.224,12.786-105.92,18.776-162.248,18.949
						c-32.657,0.058-61.167-18.892-74.875-46.653c0-0.058,0-0.058,0-0.058c-4.723-9.618-7.718-20.274-8.467-31.563l-2.361-35.767
						l-16.53-468.946c-1.152-33.002,6.912-65.659,23.211-94.4c56.444-99.353,99.583-208.554,124.292-331.637l2.304-0.634
						l44.119-12.556l25.688,26.321c52.354,53.794,88.755,121.066,105.055,194.328l42.16,189.721
						c17.854,80.289,10.195,164.148-21.887,239.886L2422.686,2730.011z"/>
				</g>
			</g>
			<g>
				<path style="fill:#FFFFFF;" d="M2019.457,3463.898c-0.057,0.115-0.115,0.173-0.231,0.288
					c-15.666,14.111-36.401,22.635-58.92,22.635h-339.47c-44.752,0-81.787-34.846-84.494-79.54l-3.225-52.93l25.227,24.709
					c25.285,24.766,59.324,38.647,94.745,38.647h267.706c26.033,0,51.952-5.933,74.645-18.719
					c34.731-19.525,53.392-46.596,47.459-85.3C2056.837,3361.896,2051.883,3417.36,2019.457,3463.898z"/>
			</g>
			<g>
				<path style="fill:#FFFFFF;" d="M2507.122,3463.898c-0.058,0.115-0.115,0.173-0.231,0.288
					c-15.666,14.111-36.4,22.635-58.92,22.635H2108.5c-32.714,0-61.34-18.661-75.394-46.192
					c9.101-18.834,14.399-38.647,16.242-58.46c24.882,22.809,57.538,35.537,91.405,35.537h267.707
					c26.033,0,51.951-5.933,74.644-18.719c34.73-19.525,53.392-46.596,47.459-85.3
					C2544.501,3361.896,2539.549,3417.36,2507.122,3463.898z"/>
			</g>
			<g>
				<g>
					<path style="fill:#1E9EC6;" d="M2046.009,2884.08c-9.965,43.139-44.292,76.199-87.431,85.933
						c-77.063,17.452-162.824,23.499-250.83,13.362h-0.345c-96.934-11.231-196.633-42.102-290.629-98.892
						c-31.621-19.122-43.946-58.863-28.165-92.211c40.951-86.279,42.448-160.807,42.448-160.807l-25.4-31.447
						c-66.811-82.766-93.651-190.701-73.781-295.179c14.802-77.697,34.73-149.807,60.706-215.524
						c10.483-26.552,28.28-49.532,51.204-66.581c64.334-47.805,130.569-88.18,201.586-109.663l137.596,39.511
						c35.767,111.102,82.305,201.816,137.597,275.942c27.186,36.458,56.443,68.942,87.661,97.798
						c24.075,22.29,38.358,53.103,40.547,85.817C2061.214,2597.713,2071.409,2773.495,2046.009,2884.08z"/>
				</g>
			</g>
			<g style="opacity:0.6;">
				<g>
					<path style="fill:#FFFFFF;" d="M1377.781,2324.593c-19.871,104.479,6.97,212.414,73.78,295.179l25.4,31.447
						c0,0-1.497,74.53-42.448,160.808c-15.781,33.348-3.456,73.09,28.165,92.211c21.196,12.787,42.679,24.306,64.335,34.5
						c-37.264-14.514-74.184-32.484-110.239-54.256c-31.621-19.122-43.946-58.863-28.165-92.211
						c40.951-86.279,42.448-160.807,42.448-160.807l-25.4-31.447c-66.811-82.766-93.651-190.701-73.781-295.179
						c14.802-77.697,34.73-149.807,60.706-215.524c10.483-26.552,28.28-49.532,51.204-66.581
						c64.334-47.805,130.569-88.18,201.586-109.663l137.596,39.511c0.806,2.419,1.555,4.838,2.362,7.257l-94.054-27.013
						c-71.016,21.483-137.252,61.858-201.586,109.663c-22.923,17.048-40.721,40.029-51.203,66.581
						C1412.511,2174.786,1392.583,2246.896,1377.781,2324.593z"/>
				</g>
			</g>
			<g>
				<path style="fill:#A839FF;" d="M1592.964,836.481l71.709-142.651c31.956-63.57,89.51-110.541,158.217-129.03
					c81.925-22.046,164.638-33.701,248.162-34.66c80.676-0.926,156.858,37.132,204.519,102.231l116.993,159.798"/>
			</g>
			<g style="opacity:0.3;">
				<path style="fill:#3D0A68;" d="M2392.564,792.195l-799.605,44.292l13.19-26.263l565.649-31.39l-86.313-174.688
					c-28.821-51.836-57.536-74.033-92.003-70.786c38.589-5.068,38.704-2.764,77.582-3.226
					c80.692-0.921,156.833,37.15,204.523,102.233L2392.564,792.195z"/>
			</g>
			<g style="opacity:0.6;">
				<path style="fill:#FFFFFF;" d="M2095.022,531.056c-72.743,3.225-144.796,14.514-216.215,33.75
					c-68.712,18.489-126.25,65.43-158.216,129.016l-70.094,139.497l-57.538,3.167l71.707-142.664
					c31.966-63.586,89.504-110.527,158.216-129.016c81.96-22.059,164.667-33.693,248.181-34.673
					C2079.126,530.019,2087.075,530.364,2095.022,531.056z"/>
			</g>
			<g>
				<path style="fill:#A839FF;" d="M2602.731,1182.178l-88.064,1.152l-1164.014,15.205
					c-88.179-251.406,265.402-428.168,631.194-449.996c194.271-11.577,391.422,19.236,520.667,89.043
					C2638.383,910.786,2699.205,1027.072,2602.731,1182.178z"/>
			</g>
			<g style="opacity:0.6;">
				<path style="fill:#FFFFFF;" d="M2525.6,852.992c-129.246-65.141-320.06-93.766-508.169-82.535
					c-356.922,21.311-702.094,190.067-636.838,431.74l-26.783,0.345c-88.179-251.406,265.403-428.168,631.194-449.996
					C2189.528,740.392,2397.277,775.18,2525.6,852.992z"/>
			</g>
			<g>
				<path style="fill:#FFA502;" d="M2599.909,1465.146l-125.963-58.172l-5.356-39.741l-30.123-224.509
					c75.854-10.541,132.816,9.849,170.944,45.386C2690.392,1263.388,2686.764,1406.457,2599.909,1465.146z"/>
			</g>
			<g>
				<path style="fill:#FFA502;" d="M2582.227,1759.059c-60.706,89.274-172.269,162.708-327.606,190.585
					c-11.749,2.131-23.845,4.032-36.113,5.587c-18.833,2.419-38.186,4.205-58.172,5.299l-2.189,1.843l-64.047,52.873l46.077,33.118
					l-64.334,200.146l-132.471-186.208l24.996-36.17l-88.351-63.701c-24.824-0.979-48.727-2.994-71.707-6.047
					c-30.641-4.032-59.554-9.792-86.681-17.048c-15.494-4.148-30.411-8.813-44.694-13.882
					c-200.549-71.476-282.854-232.284-197.67-372.415c-261.6-179.987-169.447-546.701,175.668-442.049
					c127.287-86.279,419.817-155.624,624.397-93.478v0.058c5.933,1.727,11.75,3.628,17.509,5.644
					c87.892,30.814,152.514,106.841,170.715,198.245c19.294,96.877,58.805,172.443,118.359,226.813
					c5.414,4.953,10.367,10.482,13.996,16.875C2653.185,1558.394,2644.718,1667.136,2582.227,1759.059z"/>
			</g>
			<g style="opacity:0.6;">
				<path style="fill:#FFFFFF;" d="M1993.424,2062.301l97.971,137.77l-15.551,48.438l-132.471-186.208l24.996-36.17l-88.351-63.701
					c-24.824-0.979-48.727-2.994-71.707-6.047c-293.106-38.474-430.99-235.683-329.046-403.344
					c-237.583-163.457-183.386-480.926,87.085-459.443c-226.236,19.18-259.124,306.641-37.035,459.443
					c-101.944,167.662,35.94,364.87,329.046,403.344c22.981,3.053,46.882,5.068,71.707,6.047l88.352,63.701L1993.424,2062.301z"/>
			</g>
			<g>
				<path style="fill:#F9C88F;" d="M2465.595,1232.901c76.794-15.359,167.424,62.371,87.482,174.097"/>
			</g>
			<g>
				<path style="fill:#F9C88F;" d="M2582.227,1759.059c-72.341,106.437-217.021,190.297-421.89,201.47l-66.235,54.716l46.077,33.118
					l-64.334,200.146l-132.471-186.208l24.996-36.17l-88.351-63.701c-24.824-0.979-48.727-2.994-71.707-6.047
					C1342.244,1392.806,2651.054,1199.802,2582.227,1759.059z"/>
			</g>
			<g style="opacity:0.3;">
				<path style="fill:#3D0A68;" d="M2599.909,1465.146c-3.629-6.393-8.582-11.923-13.996-16.875
					c-28.395-25.918-52.182-56.617-71.477-92.153c119.512-30.526,94.976-168.008,94.976-168.008
					C2690.392,1263.388,2686.764,1406.457,2599.909,1465.146z"/>
			</g>
			<g>
				<path style="fill:#3D0A68;" d="M2075.856,2265.788c-5.532,0-10.806-2.666-14.077-7.266l-132.471-186.226
					c-4.209-5.92-4.268-13.845-0.141-19.827l15.352-22.246l-70.386-50.733c-197.617-8.984-353.433-85.203-417.412-204.436
					c-37.612-70.086-37.529-146.577-0.176-217.012c-144.336-106.948-171.777-262.515-122.944-363.982
					c39.722-82.544,144.097-151.865,318.516-101.917c133.877-86.167,439.756-159.062,650.41-85.254
					c92.803,32.517,162.529,113.433,181.968,211.172c18.423,92.622,56.46,165.776,113.057,217.432
					c7.495,6.838,13.179,13.728,17.373,21.062v0.002c49.971,87.441,49.78,190.574-0.518,282.952
					c-74.36,136.572-241.367,225.273-447.422,237.939l-44.6,36.843l27.876,20.039c6.089,4.378,8.662,12.18,6.367,19.316
					l-64.316,200.144c-2.002,6.226-7.344,10.789-13.804,11.79C2077.623,2265.719,2076.735,2265.788,2075.856,2265.788z
					 M1964.489,2062.131l105.469,148.269l49.922-155.347l-35.859-25.776c-4.351-3.128-7.007-8.096-7.188-13.45
					s2.134-10.491,6.265-13.901l66.235-54.717c2.852-2.353,6.377-3.733,10.068-3.933c196.626-10.708,355.381-93.059,424.653-220.291
					c44.443-81.616,44.756-172.476,0.869-249.277c-2.383-4.16-5.869-8.31-10.664-12.685
					c-62.163-56.733-103.77-136.208-123.662-236.218c-17.061-85.803-78.179-156.807-159.497-185.3
					c-204.16-71.526-502.476,1.755-626.475,85.789c-4.312,2.925-9.717,3.74-14.707,2.231
					c-134.4-40.754-241.006-10.266-285.181,81.523c-43.872,91.169-15.259,233.716,124.321,329.756
					c7.549,5.198,9.731,15.383,4.966,23.215c-38.511,63.318-40.947,133.171-6.856,196.697
					c57.817,107.746,208.618,179.197,393.545,186.467c3.393,0.134,6.67,1.262,9.424,3.25l88.315,63.652
					c7.632,5.5,9.458,16.091,4.121,23.831L1964.489,2062.131z"/>
			</g>
			<g>
				<path style="fill:#3D0A68;" d="M2599.938,1482.414c-5.547,0-10.991-2.664-14.331-7.605c-5.342-7.908-3.267-18.647,4.644-23.992
					c54.653-36.936,75.391-118.169,48.232-188.958c-29.536-76.995-103.457-115.144-197.637-102.012
					c-9.487,1.294-18.179-5.283-19.497-14.732c-1.313-9.453,5.278-18.181,14.731-19.497
					c111.25-15.491,198.975,30.818,234.668,123.862c33.301,86.802,7.583,183.518-61.152,229.968
					C2606.632,1481.454,2603.268,1482.414,2599.938,1482.414z"/>
			</g>
			<g style="opacity:0.3;">
				<path style="fill:#3D0A68;" d="M2582.227,1759.059c-60.706,89.274-172.269,162.708-327.606,190.585l-36.113,5.587l-46.653,7.199
					c0,0-4.896,0-13.708-0.057c-37.034-0.173-143.299-0.692-246.452-1.843c-60.591-0.633-131.896-10.77-190.067-21.195
					c-60.361-10.829-106.668-21.944-112.198-23.327c22.924,3.628,45.443,6.796,67.503,9.445
					c638.796,77.064,930.749-261.312,602.395-907.884c5.933,1.727,11.75,3.628,17.509,5.644
					c87.892,30.814,152.514,106.841,170.715,198.245c19.294,96.877,58.805,172.443,118.359,226.813
					c5.414,4.953,10.367,10.482,13.996,16.875C2653.185,1558.394,2644.718,1667.136,2582.227,1759.059z"/>
			</g>
			<g>
				<path style="fill:#3D0A68;" d="M1350.67,1215.827c-7.134,0-13.809-4.451-16.304-11.565
					c-26.499-75.552-17.329-147.837,27.246-214.849c47.114-70.83,133.325-132.793,249.307-179.187
					c109.326-43.733,237.236-71.028,369.898-78.936c140.547-8.381,281.763,5.332,397.705,38.594
					c127.109,36.465,216.958,93.809,259.839,165.833c44.155,74.158,36.904,162.549-20.967,255.613
					c-5.039,8.105-15.688,10.591-23.799,5.549c-8.101-5.039-10.586-15.693-5.547-23.796c51.328-82.546,58.267-156.457,20.62-219.685
					c-76.143-127.886-333.457-205.044-625.791-187.61c-268.442,15.999-506.543,113.56-592.49,242.764
					c-38.252,57.502-46.128,119.5-23.413,184.275c3.159,9.004-1.582,18.865-10.586,22.024
					C1354.498,1215.512,1352.565,1215.827,1350.67,1215.827z"/>
			</g>
			<g>
				<path style="fill:#3D0A68;" d="M1592.95,853.764c-2.607,0-5.254-0.593-7.744-1.846c-8.525-4.285-11.963-14.67-7.681-23.198
					l71.709-142.651c34.146-67.93,95.806-118.213,169.165-137.954c83.34-22.427,168.276-34.287,252.451-35.252
					c86.362-0.984,167.832,39.875,218.662,109.302l116.992,159.797c5.64,7.7,3.965,18.511-3.735,24.15
					c-7.7,5.637-18.511,3.962-24.146-3.735L2261.632,642.58c-43.73-59.731-113.75-95.176-187.725-95.176
					c-0.889,0-1.772,0.005-2.656,0.015c-81.284,0.93-163.33,12.393-243.867,34.065c-63.867,17.188-117.544,60.964-147.271,120.105
					l-71.709,142.654C1605.367,850.278,1599.274,853.764,1592.95,853.764z"/>
			</g>
			<g>
				<path style="fill:#3D0A68;" d="M2323.826,843.263c37.502,7.576,74.802,17.596,110.623,32.421
					c35.723,14.756,70.637,33.673,100.171,60.835c14.807,13.434,27.942,29.208,38.328,47.009
					c5.017,8.986,9.626,18.339,12.871,28.264c1.885,4.871,3,9.993,4.436,15.023c0.933,5.135,2.197,10.25,2.629,15.464
					c2.568,20.779,1.079,41.946-4.189,61.774c-4.995,19.916-13.005,38.691-22.961,55.98c-3.97,6.893-12.776,9.264-19.67,5.294
					c-6.653-3.832-9.094-12.17-5.684-18.945l0.042-0.083c8.137-16.089,14.846-32.651,19.126-49.584c0.5-2.12,1.101-4.23,1.531-6.357
					l1.147-6.4c0.962-4.248,1.177-8.539,1.831-12.811c0.552-8.55,0.95-17.156-0.09-25.626c-1.541-16.986-6.609-33.602-14.573-49.045
					c-8.115-15.381-18.872-29.686-31.67-42.329c-25.53-25.438-57.28-45.386-90.847-61.354
					c-33.699-15.88-69.248-28.557-105.676-38.314c-3.076-0.82-4.902-3.978-4.082-7.053
					C2317.905,844.473,2320.869,842.675,2323.826,843.263z"/>
			</g>
			<g>
				<path style="fill:#3D0A68;" d="M2085.51,819.711c7.236-2.031,14.492-3.016,21.748-3.619c7.258-0.609,14.517-0.754,21.763-0.51
					c7.244,0.251,14.475,0.868,21.66,2.107c7.188,1.162,14.341,2.792,21.377,5.544c1.86,0.728,2.778,2.825,2.051,4.684
					c-0.452,1.149-1.45,1.944-2.568,2.208c-7.324,1.675-14.541,2.355-21.729,2.69c-7.192,0.413-14.343,0.328-21.489-0.001
					c-7.144-0.338-14.277-0.944-21.416-1.896c-7.141-0.946-14.282-2.155-21.448-4.296c-1.904-0.566-2.991-2.568-2.424-4.473
					C2083.396,820.931,2084.375,820.042,2085.51,819.711z"/>
			</g>
			<g>
				<path style="fill:#3D0A68;" d="M1403.062,1123.344c3.184-29.642,13.147-58.621,28.179-84.132
					c15.325-25.389,34.919-47.584,56.555-66.821c21.804-19.112,45.688-35.26,70.51-49.253
					c24.814-14.036,50.598-25.958,76.904-36.213c26.287-10.311,53.047-19.115,80.088-26.657
					c27.017-7.635,54.358-13.876,81.851-19.054c54.941-10.609,110.557-16.671,166.177-19.279c3.181-0.149,5.879,2.307,6.028,5.487
					c0.142,3.022-2.07,5.609-5.022,5.986l-0.071,0.008c-27.405,3.419-54.719,7.223-81.841,12.037
					c-27.131,4.712-54.126,10.056-80.813,16.553c-53.291,13.112-106.008,28.676-155.947,50.366
					c-49.722,21.694-97.756,47.958-137.419,83.174c-19.79,17.507-37.251,37.335-50.659,59.393
					c-13.411,22.048-22.087,46.458-25.923,71.801l-0.044,0.294c-1.189,7.863-8.528,13.271-16.389,12.083
					C1407.578,1137.96,1402.256,1130.957,1403.062,1123.344z"/>
			</g>
			<g>
				<path style="fill:#F9C88F;" d="M1644.297,1255.796c-27.401,51.147-51.897,105.526-78.001,177.849
					c-10.093,27.962-47.037,34.579-65.736,11.469c-97.484-120.483-33.58-278.982,118.639-244.831
					C1643.824,1205.807,1656.215,1233.549,1644.297,1255.796z"/>
			</g>
			<g style="opacity:0.3;">
				<path style="fill:#3D0A68;" d="M1645.832,1222.725c-122.103-6.163-171.693,123.717-98.834,232.4
					c-15.09,7.372-34.5,4.723-46.423-10.022c-97.509-120.491-33.578-278.994,118.648-244.84
					C1631.894,1203.143,1641.34,1211.897,1645.832,1222.725z"/>
			</g>
			<g>
				<path style="fill:#3D0A68;" d="M1529.738,1473.542c-15.645,0-30.283-6.904-40.371-19.37
					c-53.794-66.482-64.981-151.35-27.832-211.182c31.68-51.028,91.797-72.234,160.815-56.758
					c16.06,3.604,29.219,14.294,36.099,29.333c6.948,15.188,6.416,32.329-1.46,47.029l0,0
					c-28.926,53.999-52.72,108.259-77.149,175.938c-6.577,18.218-21.934,31.021-41.079,34.248
					C1535.734,1473.29,1532.716,1473.542,1529.738,1473.542z M1578.717,1209.982c-40.381,0-73.159,16.694-92.715,48.198
					c-30.688,49.429-20.342,120.913,25.747,177.876c5.386,6.653,13.706,9.763,22.227,8.325c8.76-1.475,15.776-7.317,18.774-15.625
					c24.922-69.045,49.243-124.485,78.857-179.761l0,0c3.589-6.699,3.828-14.517,0.654-21.448
					c-3.101-6.782-9.014-11.599-16.216-13.215C1603.048,1211.415,1590.553,1209.982,1578.717,1209.982z"/>
			</g>
			<g>
				<path style="fill:#3D0A68;" d="M1483.628,1536.318l75.518,31.609c2.964,1.24,4.36,4.648,3.12,7.612
					c-1.023,2.443-3.523,3.82-6.028,3.534l-81.335-9.316c-9.575-1.097-16.45-9.749-15.352-19.325
					c1.096-9.576,9.749-16.45,19.324-15.353C1480.522,1535.267,1482.166,1535.717,1483.628,1536.318z"/>
			</g>
			<g>
				<path style="fill:#3D0A68;" d="M1664.507,1096.606l56.973,51.765c2.38,2.163,2.559,5.847,0.393,8.229
					c-1.758,1.935-4.526,2.41-6.777,1.36l-69.739-32.588c-8.743-4.086-12.52-14.486-8.433-23.23
					c4.084-8.744,14.485-12.521,23.23-8.435C1661.76,1094.458,1663.254,1095.479,1664.507,1096.606z"/>
			</g>
			<g>
				<path style="fill:#3D0A68;" d="M2564.786,1415.375l-23.418-16.758c30.942-43.245,36.88-84.243,16.724-115.444
					c-18.218-28.203-55.088-43.054-89.673-36.155l-5.645-28.237c45.898-9.175,95.029,10.874,119.507,48.765
					C2608.903,1308.752,2602.526,1362.634,2564.786,1415.375z"/>
			</g>
			<g>
				<path style="fill:#3D0A68;" d="M2525.264,1357.788c-1.843,14.63-4.607,28.338-8.697,40.778
					c-4.665,14.284-11.059,26.898-19.468,37.264c-10.827,13.363-25.112,23.096-43.657,28.05c-2.88,0.748-5.817,1.44-8.927,1.958
					c-32.6,5.587-65.545-5.414-91.059-26.494c-48.668-40.26-80.116-107.992-97.51-197.9c-3.225-16.645-17.509-28.855-34.442-29.719
					c-0.633-0.058-1.21-0.058-1.843-0.058c-15.666,0-29.605,9.964-35.019,24.882c-17.682,48.668-41.411,93.363-71.246,134.026
					c-7.372,10.079-15.09,19.87-23.268,29.373c-8.007,9.561-16.473,18.834-25.285,27.877c-1.9,1.958-3.858,3.859-5.817,5.702
					c-15.551,14.745-33.348,26.725-52.527,35.479c-28.856,13.305-60.822,19.122-93.075,15.781
					c-82.535-8.582-129.994-67.445-126.078-199.915c1.094-35.997,22.117-68.02,53.564-83.745c5.356-2.707,11-4.895,16.933-6.565
					c15.09-4.262,30.526-8.121,46.307-11.635c15.148-3.456,30.526-6.508,46.192-9.273c12.44-2.131,24.996-4.147,37.668-5.932
					c92.729-12.901,190.584-14.859,278.475-6.278c22.923,2.245,45.156,5.183,66.466,8.812c16.876,2.937,33.175,6.278,48.726,10.079
					c14.341,3.456,28.05,7.315,41.066,11.634c30.813,9.906,57.538,22.001,78.849,36.112c14.86,9.849,24.132,26.321,25.169,44.119
					C2528.49,1302.323,2528.49,1331.524,2525.264,1357.788z"/>
			</g>
			<g>
				<path style="fill:#FFFFFF;" d="M2059.025,1433.526c-15.551,14.745-33.348,26.725-52.527,35.479l-165.588-267.879
					c5.356-2.707,11-4.895,16.933-6.565c15.09-4.262,30.526-8.121,46.307-11.635L2059.025,1433.526z"/>
			</g>
			<g>
				<path style="fill:#FFFFFF;" d="M2113.396,1370.574c-7.372,10.079-15.09,19.87-23.268,29.373l-139.785-226.294
					c12.44-2.131,24.996-4.147,37.668-5.932L2113.396,1370.574z"/>
			</g>
			<g>
				<path style="fill:#FFFFFF;" d="M2491.46,1435.329c-10.827,13.363-14.672,23.597-33.218,28.551l-186.957-302.436
					c22.923,2.245,34.716,4.682,56.026,8.312L2491.46,1435.329z"/>
			</g>
			<g>
				<path style="fill:#3D0A68;" d="M1931.627,1503.019c-6.636,0-13.301-0.344-19.966-1.038
					c-97.93-10.178-145.566-83.401-141.587-217.632c1.48-50.027,34.854-92.79,83.052-106.413
					c225.479-63.718,532.974-47.021,658.022,35.74c19.224,12.72,31.504,34.219,32.847,57.507
					c4.78,82.944-0.029,195.127-96.543,211.677c-36.055,6.182-74.336-4.822-105.015-30.2l0,0
					c-50.62-41.887-84.458-109.905-103.452-207.94c-1.704-8.801-9.253-15.264-18.354-15.718
					c-8.755-0.425-16.655,4.954-19.731,13.418c-27.08,74.661-68.691,141.096-123.672,197.459
					C2037.491,1480.61,1985.323,1503.019,1931.627,1503.019z M2157.101,1173.107c-99.292,0-203.648,12.388-294.58,38.086
					c-33.076,9.348-56.89,39.851-57.905,74.18c-4.521,152.571,60.967,177.075,110.62,182.239
					c50,5.198,100.029-13.706,137.256-51.863c51.528-52.822,90.532-115.103,115.923-185.112c8.281-22.827,29.976-37.29,53.936-36.15
					c25.029,1.25,45.825,19.204,50.562,43.662c17.168,88.606,47.974,151.821,91.558,187.886c22.9,18.95,51.03,27.251,77.144,22.764
					c53.418-9.158,74.351-63.325,67.881-175.628c-0.718-12.468-7.227-23.935-17.417-30.676
					C2423.434,1197.065,2295.167,1173.107,2157.101,1173.107z"/>
			</g>
			<g>
				<path style="fill:#3D0A68;" d="M2338.884,1473.261c0,44.06-40.6,79.777-90.684,79.777c-50.083,0-90.683-35.717-90.683-79.777
					c0-44.06,40.6-54.133,90.683-54.133C2298.284,1419.127,2338.884,1429.201,2338.884,1473.261z"/>
			</g>
			<g>
				<path style="fill:#3D0A68;" d="M1947.959,1724.902c18.079-13.416,39.338-22.947,62.295-27.695
					c22.883-4.674,47.783-4.29,70.95,3.099c23.196,7.202,44.08,20.782,60.249,37.72c16.191,17.002,28.169,37.009,35.369,58.315
					c1.04,3.079-0.613,6.416-3.691,7.456c-2.239,0.758-4.619,0.088-6.147-1.52l-0.093-0.098
					c-14.871-15.686-29.312-30.342-45.171-42.218c-15.752-11.946-32.664-21.057-50.693-26.654
					c-18.027-5.637-37.217-7.457-56.995-6.639c-19.834,0.784-40.085,4.487-61.306,8.719l-0.103,0.021
					c-3.191,0.637-6.294-1.433-6.929-4.624C1945.232,1728.48,1946.191,1726.218,1947.959,1724.902z"/>
			</g>
			<g>
				<path style="fill:#3D0A68;" d="M2265.479,1544.398l-11.519,63.356c-0.579,3.181-3.625,5.291-6.807,4.713
					c-2.463-0.448-4.285-2.389-4.712-4.713l-11.519-63.356c-1.736-9.542,4.592-18.685,14.136-20.42s18.687,4.595,20.42,14.137
					C2265.864,1540.233,2265.835,1542.396,2265.479,1544.398z"/>
			</g>
			<g>
				<path style="fill:#3D0A68;" d="M2160.337,1977.808l-80.635-8.639c-4.771-0.511-8.225-4.794-7.712-9.565
					c0.442-4.142,3.733-7.289,7.712-7.714l80.635-8.639c9.543-1.023,18.108,5.884,19.131,15.427
					c1.021,9.542-5.886,18.108-15.43,19.13C2162.815,1977.939,2161.514,1977.926,2160.337,1977.808z"/>
			</g>
			<g>
				<path style="fill:#3D0A68;" d="M1878.752,1945.219l89.392,4.888c3.203,0.176,5.659,2.914,5.483,6.117
					c-0.146,2.689-2.107,4.851-4.626,5.371l-87.681,18.086c-9.424,1.945-18.64-4.12-20.583-13.545
					c-1.946-9.424,4.119-18.64,13.545-20.583C1875.757,1945.248,1877.314,1945.148,1878.752,1945.219z"/>
			</g>
			<g>
				<path style="fill:#3D0A68;" d="M1484.552,2715.038c-5.044,0-10.044-2.197-13.457-6.431l-78.896-97.764
					c-70-86.738-98.174-199.443-77.295-309.214c15.264-80.254,35.986-153.828,61.592-218.674
					c11.606-29.399,31.304-55.015,56.958-74.082c76.982-57.219,142.729-92.92,206.895-112.354c9.146-2.781,18.779,2.4,21.548,11.531
					c2.764,9.133-2.398,18.779-11.528,21.545c-60.239,18.24-122.612,52.244-196.299,107.012
					c-20.483,15.222-36.191,35.637-45.434,59.038c-24.805,62.837-44.922,134.312-59.785,212.441
					c-18.975,99.785,6.626,202.224,70.244,281.052l78.896,97.769c5.991,7.427,4.829,18.301-2.598,24.297
					C1492.198,2713.783,1488.36,2715.038,1484.552,2715.038z"/>
			</g>
			<g>
				<path style="fill:#3D0A68;" d="M1675.51,2529.982c-18.333-22.074-35.808-44.692-53.057-67.455
					c-8.64-11.372-17.029-22.903-25.486-34.391l-3.098-4.354c-1.062-1.503-1.914-2.74-3.208-4.845
					c-2.488-3.777-4.38-7.917-6.079-12.101c-3.328-8.431-4.871-17.445-5.352-26.405c-0.198-4.491-0.034-8.994,0.491-13.453
					c0.437-4.464,1.123-8.931,2.356-13.263c2.441-8.568,7.839-16.954,11.228-22.281l22.739-36.287
					c15.12-24.21,30.305-48.389,45.786-72.41c1.731-2.684,5.31-3.458,7.993-1.729c2.39,1.541,3.264,4.546,2.207,7.081
					c-10.972,26.388-22.244,52.62-33.579,78.817l-16.943,39.327c-3.247,7.223-4.766,11.445-5.796,16.754
					c-0.635,2.531-1.343,5.067-1.621,7.683c-0.276,2.612-0.261,5.247-0.081,7.859c0.386,5.232,1.768,10.336,3.767,15.111
					c1.028,2.38,2.104,4.739,3.401,6.997l5.056,8.872c6.824,12.527,13.718,25.011,20.361,37.654
					c13.313,25.266,26.401,50.676,38.633,76.632c1.367,2.902,0.125,6.361-2.776,7.727
					C1680.007,2532.676,1677.163,2531.969,1675.51,2529.982z"/>
			</g>
			<g>
				<path style="fill:#3D0A68;" d="M1607.791,2365.543l-48.086,62.047c-1.636,2.112-4.675,2.496-6.785,0.861
					c-1.79-1.388-2.336-3.785-1.465-5.769l31.587-71.863c3.225-7.335,11.785-10.668,19.119-7.444
					c7.336,3.224,10.669,11.783,7.444,19.119C1609.126,2363.583,1608.484,2364.64,1607.791,2365.543z"/>
			</g>
			<g>
				<path style="fill:#3D0A68;" d="M1400.603,2042.095c19.302-12.816,41.731-19.108,63.611-19.663
					c21.941-0.583,43.452,4.436,62.495,13.617c19.114,9.124,35.762,22.303,49.316,37.646c13.613,15.353,24.221,32.751,32.686,50.854
					c1.348,2.882,0.105,6.311-2.778,7.659c-2.7,1.262-5.879,0.25-7.378-2.251l-0.115-0.192
					c-9.705-16.322-21.162-31.393-34.734-43.956c-13.521-12.572-29.199-22.506-46.003-28.556
					c-16.75-6.127-34.624-8.265-51.523-6.091c-16.887,2.135-32.729,8.666-45.034,18.723l-0.022,0.018
					c-7.4,6.046-18.298,4.951-24.346-2.448c-6.047-7.397-4.951-18.297,2.446-24.343
					C1399.666,2042.753,1400.139,2042.405,1400.603,2042.095z"/>
			</g>
			<g>
				<path style="fill:#3D0A68;" d="M1485.416,2778.393c-6.245,0-12.153-3.398-15.22-9.102l-26.309-48.955
					c-2.256-4.199-2.681-9.141-1.167-13.662c1.514-4.517,4.824-8.213,9.155-10.21c110.557-50.964,185.63-122.058,223.125-211.304
					c3.11-7.405,10.908-11.682,18.828-10.342l67.676,11.519c4.678,0.796,8.823,3.481,11.46,7.425
					c2.642,3.945,3.54,8.801,2.49,13.427c-31.714,139.951-125.151,228.474-285.649,270.637
					C1488.346,2778.208,1486.871,2778.393,1485.416,2778.393z M1482.906,2719.946l11.211,20.859
					c132.026-37.886,211.802-111.194,243.164-223.535l-35.991-6.126C1660.905,2598.154,1587.55,2668.285,1482.906,2719.946z"/>
			</g>
			<g>
				<path style="fill:#3D0A68;" d="M1795.04,3005.527c-136.357,0-271.582-36.396-387.222-106.279
					c-39.453-23.848-54.414-73.022-34.8-114.38c38.677-81.572,40.747-153.052,40.762-153.765c0.22-9.531,8.306-17.019,17.646-16.89
					c9.531,0.205,17.1,8.081,16.904,17.612c-0.063,3.193-2.065,79.229-44.092,167.847c-11.982,25.269-2.759,55.361,21.455,70
					c155.566,94.009,348.403,124.443,529.063,83.521c36.914-8.369,66.113-37.017,74.39-72.988
					c24.126-104.829,15.791-266.487,2.392-466.926c-1.919-28.745-14.36-55.113-35.029-74.253
					c-102.822-95.198-178.052-219.866-229.99-381.123c-2.925-9.084,2.065-18.818,11.148-21.746
					c9.087-2.913,18.818,2.065,21.743,11.15c50.073,155.464,122.222,275.3,220.576,366.362
					c27.178,25.161,43.526,59.719,46.035,97.307c13.589,203.318,21.987,367.544-3.193,476.982
					c-11.235,48.818-50.659,87.656-100.435,98.936C1907.272,2999.384,1851.061,3005.527,1795.04,3005.527z"/>
			</g>
			<g>
				<path style="fill:#3D0A68;" d="M2312.554,1944.421c-14.355,70.895-35.176,140.601-62.966,207.44
					c-13.823,33.444-29.202,66.238-46.179,98.165c-4.202,8.004-8.516,15.947-12.957,23.818c-4.619,8.289-8.276,14.68-11.55,22.229
					c-6.453,14.746-10.688,30.452-12.524,46.431c-0.92,7.997-1.248,16.03-0.962,24.1l0.94,26.691l1.88,53.38l3.76,106.763
					l7.52,213.523l1.88,53.381c0.259,8.911,0.618,17.797,1.301,26.591l0.876,13.232l0.437,6.616l0.22,3.308
					c0.076,1.094,0.212,1.819,0.308,2.747c1.157,14.174,7.51,27.571,16.865,38.147c9.495,10.552,22.422,17.748,36.191,20.535
					c3.491,0.47,6.963,1.041,10.505,1.027c0.923,0.026,1.663,0.112,2.739,0.101l3.267-0.044l6.536-0.089
					c8.711-0.221,17.419-0.481,26.106-0.989c17.383-0.922,34.705-2.499,51.904-4.72c17.205-2.183,34.272-5.085,51.138-8.684
					l12.588-2.892l6.133-1.458c1.331-0.409,2.693-0.734,3.95-1.316c5.156-2.015,9.626-5.657,12.852-10.193
					c1.565-2.297,2.881-4.777,3.784-7.408c0.852-2.648,1.313-5.387,1.519-8.168c0.315-4.169-1.824-14.827-2.991-23.245l-8.14-52.828
					l-16.279-105.657c-11.008-70.41-21.204-140.961-31.843-211.434l-0.066-0.432c-0.105-0.686-0.11-1.404-0.042-2.063
					l17.568-160.443c0.347-3.163,3.191-5.447,6.355-5.1c3.059,0.334,5.293,3.022,5.125,6.06l-9.309,161.133l-0.107-2.493
					c13.376,70.006,27.202,139.935,40.212,210.004l19.751,105.063l9.873,52.532l2.468,13.132c0.747,3.66,1.951,10.498,1.877,16.487
					c-0.171,12.264-3.997,24.442-10.862,34.583c-6.836,10.137-16.633,18.364-27.954,23.141c-2.803,1.277-5.728,2.174-8.662,3.049
					l-6.836,1.758c-4.46,1.158-8.97,2.058-13.452,3.091c-17.991,3.774-36.079,6.88-54.238,9.03
					c-18.157,2.189-36.357,3.684-54.563,4.496c-9.102,0.45-18.206,0.647-27.305,0.798l-6.826,0.035l-3.411,0.017
					c-1.152,0.002-2.634-0.096-3.936-0.148c-5.388-0.078-10.723-0.896-16.042-1.761c-21.14-4.312-40.83-15.322-55.198-31.313
					c-14.268-15.953-23.782-36.488-25.632-57.917c-0.137-1.287-0.327-2.767-0.403-3.895l-0.222-3.358l-0.444-6.715l-0.889-13.431
					c-0.693-8.971-1.052-17.886-1.311-26.783l-1.885-53.441l-7.529-213.767l-3.765-106.884l-1.882-53.441l-0.94-26.721
					c-0.347-9.735,0.049-19.55,1.165-29.25c2.229-19.415,7.378-38.486,15.212-56.382c3.782-8.829,8.977-17.935,13.027-25.2
					c4.316-7.645,8.503-15.356,12.581-23.126c16.482-30.991,31.389-62.789,44.785-95.2c26.936-64.774,47.09-132.272,61.021-201.035
					l0.015-0.065c1.895-9.353,11.013-15.399,20.366-13.505C2308.401,1925.952,2314.448,1935.068,2312.554,1944.421z"/>
			</g>
			<g>
				<path style="fill:#3D0A68;" d="M2437.76,2738.671l-31.357-14.521l70.889-153.083c30.742-72.773,37.935-152.009,20.791-229.146
					l-42.173-189.702c-15.61-70.19-50.386-134.514-100.562-186.013l-25.654-26.321l24.746-24.121l25.654,26.323
					c54.663,56.101,92.544,126.169,109.546,202.632l42.173,189.702c18.74,84.292,10.85,170.872-22.808,250.379
					c-0.078,0.176-0.151,0.351-0.234,0.525L2437.76,2738.671z"/>
			</g>
			<g>
				<path style="fill:#3D0A68;" d="M2371.505,2792.792c-7.583,0-14.419-5.005-16.582-12.476
					c-24.678-85.288-39.429-166.987-43.848-242.825c-0.508-8.708,5.557-16.428,14.141-18l58.594-10.73l6.221,33.994l-43.428,7.952
					c4.927,64.641,17.49,133.647,37.417,205.542l41.738-6.021l4.932,34.199l-56.704,8.184
					C2373.156,2792.734,2372.325,2792.792,2371.505,2792.792z"/>
			</g>
			<g>
				<path style="fill:#3D0A68;" d="M1741.731,1945.648l-47.725,140.746l-9.958-18.545l115.19,30.427
					c7.69,2.031,12.275,9.911,10.244,17.6c-0.503,1.907-1.414,3.678-2.544,5.149l-87.839,113.214l-5.544-21.991
					c64.189,28.49,125.017,64.967,179.902,108.99c13.713,11.012,27.034,22.499,40.049,34.32c6.394,6.03,12.91,11.936,19.119,18.157
					l4.702,4.62l2.351,2.31l0.588,0.577l0.146,0.144c-0.581-0.507,1.504,1.339-1.262-1.099l0.366,0.295l1.465,1.188
					c3.938,3.127,7.571,6.627,10.984,10.315c13.652,14.786,22.671,33.721,25.708,53.625c0.452,2.461,0.618,5.033,0.894,7.457
					l0.51,6.472l1.021,12.942l1.975,25.9c2.769,34.529,4.873,69.189,6.101,103.948c1.284,34.75,1.13,69.681-0.999,104.63
					c-2.09,34.926-5.994,69.985-13.872,104.456c-7.847,34.36-19.846,68.469-39.153,98.389c-1.729,2.676-5.298,3.445-7.974,1.719
					c-2.463-1.589-3.311-4.739-2.085-7.317l0.061-0.127c14.468-30.502,22.527-63.43,27.6-96.77
					c4.961-33.414,6.914-67.371,7.554-101.423c0.918-68.142-2.458-136.763-6.492-205.471l-1.765-25.767l-0.918-12.886l-0.459-6.443
					c-0.217-1.862-0.278-3.613-0.61-5.402c-2.007-14.268-8.53-27.872-18.32-38.466l-36.692-34.74
					c-12.549-11.398-25.391-22.472-38.606-33.086c-52.9-42.424-111.501-77.582-173.555-105.129
					c-7.271-3.221-10.554-11.727-7.332-18.999c0.471-1.063,1.111-2.108,1.787-2.993l87.839-113.213l7.7,22.747l-115.19-30.427
					c-7.69-2.031-12.275-9.911-10.244-17.6c0.081-0.309,0.183-0.648,0.283-0.946l47.725-140.746
					c2.554-7.531,10.73-11.566,18.259-9.012C1740.249,1929.941,1744.285,1938.118,1741.731,1945.648z"/>
			</g>
			<g>
				<path style="fill:#3D0A68;" d="M2296.577,1979.723l76.873,102.729c4.766,6.367,3.467,15.392-2.9,20.156
					c-0.039,0.029-0.142,0.104-0.181,0.133l-76.875,55.676l3.728-19.353l57.017,90.232c3.955,6.257,2.49,14.395-3.149,18.917
					l-0.107,0.083c-44.165,36.136-83.772,78.041-120.334,122.625c-2.466,2.971-4.207,5.063-5.947,7.606
					c-1.724,2.484-3.313,5.07-4.702,7.766c-2.837,5.364-4.978,11.108-6.416,17.041c-1.479,5.925-2.119,12.057-2.158,18.184
					c0.042,2.822,0.239,6.647,0.425,10.291l0.537,10.942c1.504,29.175,2.52,58.379,3.804,87.571
					c2.427,58.39,5,116.776,6.936,175.215l3.015,87.659l0.657,21.925l0.327,10.962c0.046,3.191,0.562,6.779,1.018,10.223
					c2.053,13.879,5.439,27.745,11.257,40.203l0.051,0.106c1.345,2.882,0.1,6.311-2.783,7.657c-2.764,1.292-6.04,0.182-7.49-2.454
					c-7.463-13.633-12.026-28.256-15.012-43.12c-0.706-3.763-1.448-7.397-1.775-11.509l-0.923-10.925l-1.846-21.852l-6.995-87.446
					c-4.736-58.298-8.835-116.649-13.081-174.996c-2.053-29.177-4.373-58.341-6.206-87.535l-0.713-10.946
					c-0.232-3.651-0.5-7.122-0.642-11.606c-0.105-8.479,0.674-17.001,2.588-25.298c1.87-8.303,4.744-16.4,8.611-24.028
					c1.904-3.827,4.084-7.521,6.47-11.078c2.322-3.538,5.205-7.119,7.366-9.8c37.234-45.99,78.452-89.594,126.133-125.995v-0.001
					l-3.257,18.999l-57.019-90.233c-4.077-6.451-2.356-14.928,3.726-19.354l76.875-55.675l-3.083,20.288l-76.873-102.731
					c-4.766-6.366-3.467-15.391,2.9-20.155S2291.812,1973.356,2296.577,1979.723z"/>
			</g>
			<g>
				<path style="fill:#3D0A68;" d="M1880.021,2185.878c-3.013,0-6.06-0.786-8.828-2.437c-8.198-4.885-10.884-15.491-6.001-23.689
					l63.354-106.316c4.888-8.205,15.503-10.876,23.686-5.998c8.198,4.885,10.884,15.491,6.001,23.689l-63.354,106.316
					C1891.647,2182.868,1885.905,2185.878,1880.021,2185.878z"/>
			</g>
			<g>
				<path style="fill:#3D0A68;" d="M2235.201,2143.398c-3.848,0-7.72-1.279-10.933-3.906l-95.034-77.754
					c-7.383-6.042-8.472-16.929-2.432-24.316c6.05-7.385,16.924-8.476,24.316-2.432l95.034,77.754
					c7.383,6.042,8.472,16.929,2.432,24.316C2245.167,2141.235,2240.206,2143.398,2235.201,2143.398z"/>
			</g>
			<g>
				<path style="fill:#3D0A68;" d="M2090.198,2247.163l4.839,143.958c0.107,3.185-2.388,5.853-5.574,5.961
					c-2.952,0.099-5.459-2.037-5.896-4.884l-22.041-142.343c-1.218-7.872,4.175-15.243,12.048-16.462s15.244,4.175,16.462,12.048
					C2090.122,2245.99,2090.176,2246.62,2090.198,2247.163z"/>
			</g>
			<g>
				<path style="fill:#3D0A68;" d="M2051.573,2869.697c-4.317,0-8.584-1.934-11.421-5.615c-4.849-6.304-3.672-15.342,2.627-20.195
					l55.015-42.349c4.443-3.418,10.479-3.945,15.439-1.357l58.574,30.528c7.051,3.677,9.79,12.373,6.113,19.424
					c-3.677,7.061-12.378,9.785-19.424,6.113l-50.42-26.279l-47.729,36.743C2057.731,2868.72,2054.64,2869.697,2051.573,2869.697z"
					/>
			</g>
			<g>
				<path style="fill:#3D0A68;" d="M1841.782,2779.08c-5.894,13.339-15.054,25.164-25.92,35.144
					c-10.889,9.993-23.589,18.021-37.029,23.901c-13.438,5.923-27.571,9.81-41.763,11.886c-14.216,1.996-28.503,2.377-42.651,0.343
					c-3.25-0.468-5.503-3.479-5.037-6.727c0.317-2.211,1.814-3.961,3.762-4.707l0.056-0.021
					c12.998-4.944,25.735-8.849,38.086-13.176c12.363-4.244,24.338-8.741,35.869-13.893c11.526-5.165,22.612-10.94,33.374-17.606
					c10.808-6.632,21.165-14.202,32.212-22.28l0.09-0.067c2.651-1.938,6.372-1.361,8.313,1.29
					C1842.441,2774.94,1842.607,2777.202,1841.782,2779.08z"/>
			</g>
			<g>
				<path style="fill:#3D0A68;" d="M2275.54,2773.942c5.986,8.066,11.506,15.559,17.715,22.156
					c6.125,6.638,12.717,12.455,19.902,17.628c7.183,5.172,14.956,9.711,23.262,13.894c8.289,4.263,17.107,7.976,26.255,12.461
					l0.09,0.045c2.373,1.162,3.352,4.027,2.19,6.398c-0.745,1.519-2.217,2.469-3.782,2.649c-10.596,1.143-21.301,0.001-31.782-2.743
					c-10.447-2.813-20.659-7.476-29.722-14.031c-18.215-12.996-31.108-33.835-32.791-55.317c-0.208-2.631,1.76-4.932,4.392-5.138
					c1.689-0.132,3.242,0.631,4.192,1.891L2275.54,2773.942z"/>
			</g>
			<g>
				<path style="fill:#3D0A68;" d="M1960.304,3504.101h-339.468c-53.799,0-98.491-42.07-101.738-95.776l-29.146-476.597
					l34.492-2.109l29.146,476.606c2.149,35.508,31.685,63.315,67.246,63.315h339.468c24.966,0,48.276-13.286,60.845-34.673
					c5.405-9.233,8.521-19.316,9.233-29.956c4.443-65.879-5.381-116.338-28.418-145.923l27.266-21.23
					c28.74,36.914,40.728,93.931,35.635,169.478c-1.079,16.025-5.762,31.206-13.906,45.117
					C2032.198,3484.281,1997.467,3504.101,1960.304,3504.101z"/>
			</g>
			<g>
				<path style="fill:#3D0A68;" d="M2015.597,3265.654c-5.928,0-11.157-2.983-14.268-7.534
					c-16.675-20.996-40.142-31.494-71.704-32.095c-5.923-0.112-11.377-3.252-14.448-8.32c-3.071-5.068-3.335-11.353-0.693-16.66
					l74.126-148.828c3.491-7.002,11.25-10.791,18.911-9.229c7.666,1.558,13.325,8.071,13.804,15.879l11.519,188.384
					c0.005,0.088,0.01,0.181,0.015,0.273l0,0c0,0.02,0,0.044,0.005,0.063v0.005c0,0.02,0,0.039,0,0.059c0,0.005,0,0.005,0,0.005
					c0,0.024,0,0.044,0.005,0.063v0.005c0,0.019,0,0.039,0,0.058c0,0.005,0,0.005,0,0.01c0,0.02,0,0.039,0,0.059v0.005
					c0.005,0.01,0.005,0.02,0.005,0.029l0,0c0,0.01,0,0.02,0,0.029c0,0.005,0,0.005,0,0.01c0,0.01,0,0.014,0,0.024v0.005
					c0,0.01,0,0.02,0,0.029v0.005c0,0.02,0,0.024,0,0.034c0,0.02,0,0.024,0,0.034c0,0.01,0,0.015,0,0.024v0.005
					c0,0.01,0,0.02,0,0.029c0,0.005,0,0.005,0,0.005c0,0.02,0.005,0.024,0.005,0.034s0,0.02,0,0.029c0,0,0,0.01,0,0.029v0.005
					c0,0.01,0,0.02,0,0.029c0,0.005,0,0.005,0,0.005c0,0.02,0,0.024,0,0.034s0,0.02,0,0.029v0.059
					C2032.877,3257.914,2025.138,3265.654,2015.597,3265.654z M1956.568,3194.067c14.424,2.69,27.534,7.446,39.272,14.243
					l-5.068-82.915L1956.568,3194.067z"/>
			</g>
			<g>
				<path style="fill:#3D0A68;" d="M2449.24,3504.101h-339.414c-36.836,0-70.884-19.941-88.857-52.036l30.156-16.885
					c11.865,21.196,34.36,34.36,58.701,34.36h339.414c36.87,0,67.651-28.384,70.073-64.619
					c4.771-70.347-6.646-122.71-33.022-151.455c-16.45-17.935-38.604-26.909-67.725-27.441l0.635-34.551
					c38.545,0.703,69.683,13.701,92.554,38.628c33.398,36.402,47.544,96.001,42.041,177.139
					C2550.162,3461.547,2504.235,3504.101,2449.24,3504.101z"/>
			</g>
			<g>
				<path style="fill:#3D0A68;" d="M1696.582,3348.994c7.722-23.682,18.533-46.871,33.408-67.761
					c3.872-5.114,7.451-10.433,11.814-15.199l6.326-7.312c2.083-2.462,4.57-4.556,6.816-6.877l6.912-6.819l7.483-6.194
					c2.556-1.987,4.966-4.188,7.656-5.986l8.142-5.287c5.383-3.632,11.25-6.332,17.065-9.082c5.698-3.029,11.917-4.719,17.871-6.957
					c12.036-4.094,24.373-6.94,36.694-8.704c24.673-3.511,49.287-3.271,73.184,0.165c3.179,0.458,5.388,3.407,4.929,6.588
					c-0.369,2.568-2.363,4.503-4.795,4.911l-0.134,0.021c-23.174,3.859-45.715,8.204-66.953,15.227
					c-5.271,1.823-10.642,3.296-15.637,5.652c-5.017,2.272-10.281,3.889-15.012,6.592c-4.805,2.522-9.753,4.731-14.248,7.65
					c-4.546,2.831-9.326,5.227-13.572,8.422c-4.446,2.892-8.914,5.739-13.005,9.099l-6.367,4.756l-5.896,5.336
					c-1.931,1.821-4.019,3.484-5.781,5.481l-5.361,5.928c-3.782,3.771-6.67,8.35-9.941,12.582
					c-12.466,17.487-21.877,37.432-28.743,58.483c-2.959,9.073-12.71,14.031-21.782,11.073
					c-9.075-2.958-14.031-12.711-11.074-21.783L1696.582,3348.994z"/>
			</g>
			<g>
				<path style="fill:#3D0A68;" d="M1678.766,3296.991c-63.169,0-122.08-26.216-167.422-76.709
					c-6.377-7.1-5.786-18.022,1.313-24.399c7.104-6.382,18.023-5.791,24.399,1.313c59.297,66.03,142.456,83.076,228.169,46.753
					c8.809-3.725,18.931,0.381,22.651,9.165c3.726,8.789-0.381,18.931-9.165,22.651
					C1745.118,3290.004,1711.373,3296.991,1678.766,3296.991z"/>
			</g>
			<g>
				<path style="fill:#3D0A68;" d="M1920.817,3432.104h-267.749c-39.419,0-76.641-15.186-104.805-42.759l-25.244-24.707
					c-5.684-5.562-5.781-14.678-0.22-20.361c5.566-5.684,14.683-5.781,20.366-0.215l25.244,24.707
					c22.749,22.271,52.817,34.536,84.658,34.536h267.749c24.619,0,47.983-5.83,67.568-16.855
					c36.006-20.278,47.739-45.376,38.047-81.382c-2.07-7.681,2.481-15.581,10.156-17.646c7.676-2.095,15.581,2.476,17.646,10.156
					c13.164,48.882-4.238,87.222-51.719,113.965C1978.624,3424.994,1950.372,3432.104,1920.817,3432.104z"/>
			</g>
			<g>
				<path style="fill:#3D0A68;" d="M2418.892,3226.019c-22.483,0.208-44.795,2.181-66.172,7.086
					c-5.293,1.357-10.737,2.317-15.786,4.307c-5.085,1.865-10.4,3.223-15.21,5.636c-4.851,2.311-9.927,4.194-14.456,7.019
					c-4.631,2.633-9.465,4.924-13.799,7.976l-6.787,4.161c-2.261,1.394-4.333,3.04-6.526,4.545c-2.153,1.552-4.348,3.064-6.58,4.55
					l-6.179,5.098c-2.026,1.747-4.258,3.297-6.145,5.212l-5.808,5.646c-4.104,3.585-7.446,7.909-11.155,11.965
					c-14.429,16.628-26.25,36.125-36.868,56.917l-0.015,0.032c-1.465,2.865-4.973,4.001-7.839,2.538
					c-2.314-1.182-3.499-3.706-3.098-6.141c3.972-23.942,12.373-47.579,25.286-69.326c3.438-5.292,6.56-10.865,10.603-15.818
					c3.813-5.129,7.798-10.16,12.329-14.738l6.628-7.057c2.383-2.169,4.81-4.303,7.271-6.401c2.498-2.047,4.814-4.365,7.485-6.185
					l8.005-5.481c5.293-3.774,11.106-6.58,16.836-9.528c5.667-3.123,11.758-5.139,17.666-7.588
					c5.869-2.609,12.021-4.164,18.049-6.158c6.025-2.076,12.183-3.319,18.296-4.846c24.534-5.627,49.382-7.761,73.967-7.976
					c9.541-0.083,17.344,7.584,17.427,17.126s-7.583,17.345-17.126,17.428L2418.892,3226.019z"/>
			</g>
			<g>
				<path style="fill:#3D0A68;" d="M2167.701,3296.991c-63.169,0-122.08-26.216-167.417-76.709
					c-6.377-7.1-5.786-18.022,1.313-24.399c7.1-6.382,18.018-5.791,24.4,1.313c59.287,66.03,142.456,83.076,228.164,46.753
					c8.804-3.725,18.936,0.381,22.651,9.165c3.726,8.789-0.381,18.931-9.165,22.651
					C2234.054,3290.004,2200.309,3296.991,2167.701,3296.991z"/>
			</g>
			<g>
				<path style="fill:#3D0A68;" d="M2409.728,3432.104h-267.705c-38.701,0-75.391-14.668-103.306-41.299
					c-5.752-5.493-5.967-14.604-0.479-20.361c5.498-5.752,14.609-5.962,20.361-0.479c22.529,21.499,52.158,33.34,83.423,33.34
					h267.705c24.629,0,47.993-5.83,67.578-16.86c36.035-20.269,47.778-45.371,38.086-81.401
					c-2.065-7.681,2.485-15.581,10.166-17.646c7.676-2.075,15.581,2.485,17.646,10.166c13.154,48.906-4.268,87.256-51.772,113.975
					C2467.555,3424.99,2439.298,3432.104,2409.728,3432.104z"/>
			</g>
			<g>
				<path style="fill:#3D0A68;" d="M1989.001,3051.479c7.573-11.489,16.394-22.334,26.575-31.819
					c10.159-9.489,21.699-17.556,34.092-23.558c12.383-6.03,25.547-9.967,38.723-12.028c13.191-2.078,26.382-2.347,39.309-1.512
					c3.179,0.205,5.591,2.95,5.386,6.13c-0.186,2.882-2.456,5.132-5.247,5.377l-0.139,0.012c-12.17,1.08-24.099,3.213-35.366,6.816
					c-11.265,3.586-21.819,8.668-31.189,15.179c-18.84,12.996-32.549,31.556-41.99,52.283c-3.97,8.715-14.25,12.561-22.964,8.593
					c-8.716-3.97-12.561-14.252-8.591-22.965c0.364-0.8,0.781-1.559,1.245-2.274L1989.001,3051.479z"/>
			</g>
			<g>
				
					<rect x="2240.618" y="3054.75" transform="matrix(0.119 -0.9929 0.9929 0.119 -954.8142 5068.0269)" style="fill:#3D0A68;" width="275.397" height="34.562"/>
			</g>
			<g style="opacity:0.3;">
				<path style="fill:#3D0A68;" d="M2602.731,1182.178c-26.149-21.886-60.188-37.035-102.233-41.124
					c-1.613-4.953-2.707-8.063-3.226-8.928v-0.058c-14.86-0.575-27.3,2.535-37.668,8.525c-6.45,0.345-13.074,1.037-19.813,1.958
					c-36.689-86.567-124.638-130.858-253.537-141.514c-67.272-115.652-239.427-140.534-446.772-134.889l160.232-31.736
					c253.422-15.781,488.587-13.823,606.255,102.291c31.678-45.962,11.173-82.017-3.456-99.122
					C2638.383,910.786,2699.205,1027.072,2602.731,1182.178z"/>
			</g>
			<g>
				<path style="fill:#3D0A68;" d="M1608.856,1915.892c0.173,0.058,0.404,0.058,0.576,0.115
					C1609.029,1915.95,1608.856,1915.892,1608.856,1915.892z"/>
			</g>
			<g style="opacity:0.3;">
				<path style="fill:#3D0A68;" d="M1645.358,2266.521l106.445-97.923l-156.387-55.986c0,0-144.225,203.092-88.192,391.239
					l32.995,61.436l-32.995,132.47c0,0,143.388-87.834,183.705-205.906C1690.93,2491.852,1622.824,2408.364,1645.358,2266.521z"/>
			</g>
			<g style="opacity:0.3;">
				<path style="fill:#3D0A68;" d="M2046.009,2884.08c-9.965,43.139-44.292,76.199-87.431,85.933
					c-77.063,17.452-162.824,23.499-250.83,13.362c310.5,17.797,278.477-195.193,286.425-410.14
					c7.891-215.005-82.477-344.711-82.477-344.711h8.869c27.186,36.458,56.443,68.942,87.661,97.798
					c24.075,22.29,38.358,53.103,40.547,85.817C2061.214,2597.713,2071.409,2773.495,2046.009,2884.08z"/>
			</g>
			<g style="opacity:0.3;">
				<path style="fill:#3D0A68;" d="M2493.068,2578.073l-71.016,153.32l-39.223-229.404l9.446-143.817
					c3.513-178.547-50.224-252.732-50.224-252.732l24.939-18.2l-69.058-92.845v-54.025l44.119-12.556l25.688,26.321
					c52.354,53.794,88.755,121.066,105.055,194.328l42.16,189.721C2532.809,2418.475,2525.15,2502.334,2493.068,2578.073z"/>
			</g>
			<g style="opacity:0.3;">
				<path style="fill:#3D0A68;" d="M2316.566,2258.255l16.978,56.143c5.125,16.949-0.812,35.299-14.895,46.032l-58.245,44.392
					c-15.988,12.185-25.841,30.757-26.967,50.827l-13.585,242.108l-18.417-306.098L2316.566,2258.255z"/>
			</g>
			<g style="opacity:0.3;">
				<path style="fill:#3D0A68;" d="M2412.607,2931.078c-50.224,12.786-105.92,18.776-162.248,18.949
					c-32.657,0.058-61.167-18.892-74.875-46.653c0-0.058,0-0.058,0-0.058c1.095-14.111,2.131-24.132,2.131-24.132
					c95.724,35.882,169.677,12.383,208.958-105.861c11-33.175,19.295-73.78,24.594-122.679l11.519,79.367l-0.634,1.382l6.163,35.94
					l18.949,110.93C2451.254,2902.165,2436.164,2925.088,2412.607,2931.078z"/>
			</g>
			<g style="opacity:0.3;">
				<polygon style="fill:#3D0A68;" points="2201.436,1960.529 2181.009,2081.77 2239.051,2132.012 2291.817,1959.15 				"/>
			</g>
			<g style="opacity:0.3;">
				<polygon style="fill:#3D0A68;" points="1955.871,2087.24 1968.574,2274.427 1884.731,2160.721 1943.392,2071.401 				"/>
			</g>
			<g style="opacity:0.3;">
				<polygon style="fill:#3D0A68;" points="2140.178,2071.401 2207.776,2203.14 2227.686,2122.174 2148.018,2062.282 				"/>
			</g>
			<g style="opacity:0.3;">
				<path style="fill:#3D0A68;" d="M1785.33,2982.573l11.044,261.679l139.339-58.369l37.063-72.47
					c0,0,29.226-139.886,50.078-182.737C2022.853,2930.675,1940.205,3018.286,1785.33,2982.573z"/>
			</g>
			<g style="opacity:0.3;">
				<path style="fill:#3D0A68;" d="M2536.554,3406.072c-3.053,45.615-41.585,80.75-87.316,80.75h-201.873
					c261.601-57.826,241.788-235.797,64.277-255.15l-93.651,42.218l14.168-325.821c51.031-2.765,111.621-10.943,151.766-17.048
					l10.77,4.32l-32.772,273.408h56.963C2519.505,3210.592,2543.407,3304.99,2536.554,3406.072z"/>
			</g>
			<g style="opacity:0.3;">
				<path style="fill:#3D0A68;" d="M1680.37,3492.581c313.784-5.76,332.776-196.734,130.071-257.742
					c0,0,89.526-70.218,183.713-7.031c94.188,63.187,49.449,190.392,32.941,228.302s-66.789,30.711-66.789,30.711L1680.37,3492.581z
					"/>
			</g>
		</g>
	</g>
</g>
</svg>
